HIERARCHY
ROOT Hips
{
  OFFSET -32.5998 29.0326 120.673
  CHANNELS 6 Xposition Yposition Zposition Zrotation Xrotation Yrotation
  JOINT LeftUpLeg
  {
    OFFSET 8.64259 1.95398 -2.38835
    CHANNELS 3 Zrotation Xrotation Yrotation
    JOINT LeftLeg
    {
      OFFSET 43.7702 0 0
      CHANNELS 3 Zrotation Xrotation Yrotation
      JOINT LeftFoot
      {
        OFFSET 40.6238 0 0
        CHANNELS 3 Zrotation Xrotation Yrotation
        JOINT LeftToeBase
        {
          OFFSET 12.7242 0 0
          CHANNELS 3 Zrotation Xrotation Yrotation
          End Site
          {
            OFFSET 0 0 0
          }
        }
      }
    }
  }
  JOINT RightUpLeg
  {
    OFFSET -8.2249 1.95398 -2.59336
    CHANNELS 3 Zrotation Xrotation Yrotation
    JOINT RightLeg
    {
      OFFSET 43.5653 0 0
      CHANNELS 3 Zrotation Xrotation Yrotation
      JOINT RightFoot
      {
        OFFSET 40.6238 0 0
        CHANNELS 3 Zrotation Xrotation Yrotation
        JOINT RightToeBase
        {
          OFFSET 12.7242 0 0
          CHANNELS 3 Zrotation Xrotation Yrotation
          End Site
          {
            OFFSET 0 0 0
          }
        }
      }
    }
  }
  JOINT Spine
  {
    OFFSET 0.165834 0.87714 6.61349
    CHANNELS 3 Zrotation Xrotation Yrotation
    JOINT Spine1
    {
      OFFSET 7.38963 1.71661e-005 0
      CHANNELS 3 Zrotation Xrotation Yrotation
      JOINT Spine2
      {
        OFFSET 11.9445 1.14441e-005 0
        CHANNELS 3 Zrotation Xrotation Yrotation
        JOINT Spine3
        {
          OFFSET 14.7254 4.19617e-005 0
          CHANNELS 3 Zrotation Xrotation Yrotation
          JOINT Spine4
          {
            OFFSET 10.9679 0 0
            CHANNELS 3 Zrotation Xrotation Yrotation
            JOINT RightShoulder
            {
              OFFSET 2.46616 -1.6653 3.69651
              CHANNELS 3 Zrotation Xrotation Yrotation
              JOINT RightArm
              {
                OFFSET 13.0012 0 0
                CHANNELS 3 Zrotation Xrotation Yrotation
                JOINT RightForeArm
                {
                  OFFSET 28.7848 1.62311e-005 0
                  CHANNELS 3 Zrotation Xrotation Yrotation
                  JOINT RightHand
                  {
                    OFFSET 26.5688 1.62095e-005 0
                    CHANNELS 3 Zrotation Xrotation Yrotation
                    End Site
                    {
                      OFFSET 0 0 0
                    }
                  }
                }
              }
            }
            JOINT LeftShoulder
            {
              OFFSET 2.38034 -1.29275 -3.7523
              CHANNELS 3 Zrotation Xrotation Yrotation
              JOINT LeftArm
              {
                OFFSET 16.3182 6.07031e-005 0
                CHANNELS 3 Zrotation Xrotation Yrotation
                JOINT LeftForeArm
                {
                  OFFSET 27.0901 0 0
                  CHANNELS 3 Zrotation Xrotation Yrotation
                  JOINT LeftHand
                  {
                    OFFSET 24.5451 1.51738e-005 0
                    CHANNELS 3 Zrotation Xrotation Yrotation
                    End Site
                    {
                      OFFSET 0 0 0
                    }
                  }
                }
              }
            }
            JOINT Neck
            {
              OFFSET 5.0226 -0.0266342 0
              CHANNELS 3 Zrotation Xrotation Yrotation
              JOINT Head
              {
                OFFSET 6.69364 2.86102e-005 0
                CHANNELS 3 Zrotation Xrotation Yrotation
                End Site
                {
                  OFFSET 0 0 0
                }
              }
            }
          }
        }
      }
    }
  }
}
MOTION
Frames:	13
Frame Time:	0.0416667
36.1868 8.2227 40.283 3.78245 -10.4768 -0.805155 -174.607 -9.97313 92.5163 -19.3711 37.6916 3.59351 91.8511 22.6838 1.94858 7.79107 -10.8076 2.21711 173.185 -15.0583 89.6103 -11.5318 -20.6243 -2.46045 88.8712 -21.1651 -1.591 40.2723 -5.25766 1.46719 0.04327 6.35085 -89.9779 14.1722 0.0966047 0.0310144 2.50124 0.0978782 0.0267296 -20.034 0.0828144 0.0586102 -0.0212819 0.0828166 0.0586044 97.0712 -11.3311 -97.0041 43.401 -37.2282 25.7634 12.7862 3.56504 -146.036 82.6723 6.87274 2.66701 -84.8871 -31.4832 83.459 -0.615642 17.34 11.7305 75.7384 -32.9325 -107.212 -77.8712 30.4157 -43.1582 34.0317 -2.24307 -4.52485 -2.59487 -0.138891 3.40195 
36.1246 8.29922 40.3153 3.71511 -10.5263 -0.884995 -174.68 -9.69816 92.4318 -19.6992 37.0769 3.62068 91.4 21.9092 1.11059 11.1603 -9.90718 3.50253 173.208 -15.1666 89.6252 -11.3122 -21.0671 -2.51451 88.4029 -21.2102 -2.30595 40.8121 -5.52773 1.85291 0.0885469 6.3054 -90.0003 14.263 0.175325 -0.0248874 2.59211 0.174052 -0.0326097 -19.9431 0.174699 0.0289447 0.0695116 0.174697 0.0289442 97.1852 -10.6116 -96.924 47.0285 -39.4631 28.0908 16.9095 -0.420557 -146.974 88.2881 14.0189 9.28003 -85.4157 -32.6029 82.6882 0.382858 17.7866 11.9596 75.6831 -32.6588 -107.006 -78.097 30.5201 -43.1329 32.025 -2.18169 -3.23782 -0.628232 -0.672534 2.1549 
36.1402 8.28092 40.2995 3.79415 -10.4963 -0.914926 -174.705 -9.70682 92.3998 -19.6208 37.0887 3.61124 91.6439 21.9987 0.922937 11.6282 -10.5031 4.82109 173.163 -15.1684 89.6066 -11.3454 -21.0621 -2.49967 88.318 -21.2807 -2.62164 41.9597 -6.11618 2.96388 0.0752303 6.29546 -89.999 14.283 0.149568 -0.0187373 2.61204 0.148603 -0.0253108 -19.9232 0.148282 0.0270782 0.0894817 0.148287 0.0270778 96.6725 -11.0771 -98.2419 46.6565 -37.8189 28.8067 17.1986 -1.52901 -146.925 87.7914 14.1468 9.47762 -85.5275 -32.7876 82.5171 0.637898 17.6453 12.2231 75.0105 -32.4906 -107.756 -78.8857 31.4803 -43.8024 31.8244 -2.0313 -3.07502 -0.63653 -0.611882 1.82633 
36.1743 8.26604 40.3092 3.89061 -10.4625 -0.886607 -174.798 -9.66803 92.3587 -19.6872 37.1903 3.712 91.7194 22.0674 0.948762 12.8685 -10.9536 6.59308 173.15 -15.2617 89.642 -11.2205 -20.7969 -2.48161 88.2018 -21.2566 -2.7163 43.671 -6.94752 4.69312 0.0548679 6.32871 -89.9986 14.2165 0.109427 -0.0122808 2.54554 0.108775 -0.0170876 -19.9897 0.108056 0.0211797 0.0229906 0.108056 0.0211723 96.8304 -10.9805 -97.8225 46.2355 -38.1217 28.0483 16.2456 -0.320721 -146.959 88.7699 12.4052 7.47129 -85.266 -32.1223 82.8705 -0.0732881 17.3212 11.9143 75.2566 -32.6336 -107.767 -78.9527 31.8211 -44.1839 32.4591 -2.07677 -3.39924 -0.649415 -0.488378 2.3197 
36.1552 8.28291 40.3132 3.83965 -10.4118 -0.922104 -174.824 -9.65425 92.313 -19.6104 36.8573 3.70518 91.8187 22.0106 0.702099 14.7558 -11.1701 8.64257 173.204 -15.2424 89.7076 -11.2674 -20.7497 -2.53101 87.9645 -21.3085 -3.20348 45.9839 -7.96068 6.8936 0.069073 6.26248 -90.0086 14.349 0.132652 -0.0357936 2.67804 0.130951 -0.0416034 -19.8572 0.137268 0.00574223 0.155494 0.13728 0.00572704 96.4479 -10.8698 -98.9732 47.7544 -37.4106 29.6652 17.7904 -2.41151 -146.866 86.1834 14.9661 10.7531 -85.8293 -32.9688 81.995 0.552452 17.6789 12.7115 76.9361 -32.232 -105.476 -81.8253 28.6117 -38.582 31.0512 -1.96393 -2.98893 -0.0219033 -0.59025 1.98157 
36.1323 8.27414 40.3103 3.71849 -10.4108 -0.984094 -174.742 -9.64826 92.324 -19.6152 37.3252 3.61119 91.458 22.056 1.3091 17.6524 -10.9176 11.0133 173.23 -15.3639 89.7626 -11.1885 -21.1571 -2.6061 87.4083 -21.4305 -4.34065 48.8518 -9.06337 9.38954 0.0749969 6.27627 -90.0058 14.3214 0.14573 -0.0320758 2.65048 0.144178 -0.0384792 -19.8847 0.148635 0.0132079 0.127904 0.148635 0.0131917 96.6408 -11.6933 -98.1028 44.8256 -37.7819 28.702 16.5662 -1.12431 -147.034 88.3157 12.8713 8.04538 -85.713 -32.9378 82.2058 0.263986 17.4136 12.6898 77.8043 -33.1804 -105.361 -78.2908 28.7934 -40.859 31.5489 -1.70702 -2.25297 -0.333996 -0.658019 1.28682 
36.1144 8.28735 40.3041 3.85717 -10.4031 -0.976181 -174.762 -9.57852 92.338 -19.694 37.3738 3.62695 91.4013 22.0638 1.39484 20.6572 -10.6507 13.6891 173.289 -15.4436 89.9081 -11.188 -20.9472 -2.62856 87.0666 -21.4934 -5.03326 51.8731 -10.0707 12.0983 0.0574169 6.27561 -90.0162 14.3227 0.105806 -0.0473551 2.65176 0.103616 -0.0519807 -19.8834 0.115148 -0.0133597 0.1292 0.115146 -0.0133672 96.7341 -11.7272 -97.8333 43.9587 -37.8791 28.3986 17.3869 -2.40532 -147.084 87.652 13.6747 9.02689 -85.7157 -33.1775 82.2467 0.554297 17.3049 12.7501 75.7028 -32.628 -106.998 -79.8996 30.1066 -41.5024 31.6949 -1.50333 -1.74326 -0.549432 -0.685309 0.930098 
36.1971 8.27594 40.3009 3.91391 -10.2751 -0.995385 -174.95 -9.4603 92.1795 -19.7287 36.8578 3.74267 91.8362 21.9809 0.613966 23.2452 -10.9975 17.2601 173.21 -15.5119 89.8964 -10.9507 -21.067 -2.60236 86.5534 -21.5581 -5.93525 55.0754 -10.9715 14.7988 0.0192658 6.24274 -90.0069 14.3884 0.0348256 -0.0186898 2.71748 0.0339625 -0.0202272 -19.8177 0.0388284 -0.00737491 0.194964 0.0388327 -0.00735754 96.3887 -12.1541 -98.6546 43.2421 -37.2733 28.6443 17.4391 -2.84763 -147.138 87.8059 13.5925 8.90566 -85.519 -33.1716 82.613 0.552311 17.6146 12.9489 76.2705 -32.5727 -105.198 -80.8794 26.6773 -36.8065 31.3873 -1.52292 -2.22968 -0.249064 -0.50138 1.11894 
36.1802 8.24832 40.3103 3.86004 -10.3251 -0.987444 -174.77 -9.49701 92.2829 -19.7724 37.2693 3.61009 91.5086 22.0988 1.31913 26.2652 -10.306 19.6939 173.292 -15.8561 90.0457 -10.5805 -21.1097 -2.68647 85.9489 -21.5706 -6.8335 58.2869 -11.7185 17.4314 0.068997 6.31802 -90.0229 14.2378 0.125496 -0.0633357 2.56688 0.12259 -0.0688087 -19.9683 0.138725 -0.0226782 0.0443255 0.138726 -0.0226864 97.1483 -11.0682 -96.8713 44.1411 -38.4912 27.7796 17.1826 -2.17721 -147.48 87.3181 13.1542 8.56997 -85.2863 -31.8298 82.7723 -0.986513 17.0404 12.3428 76.1815 -32.466 -105.357 -80.4769 26.4423 -36.7674 32.9428 -1.74136 -2.21512 -0.995538 -0.678951 1.5201 
36.1883 8.25267 40.2989 3.92746 -10.2919 -0.97784 -174.926 -9.51025 92.1778 -19.7788 37.1883 3.75996 91.4977 22.1365 1.40557 29.3144 -9.73213 22.6752 173.351 -15.9348 90.1913 -10.5312 -21.106 -2.7283 85.4363 -21.627 -7.81824 61.4518 -12.3176 19.8871 0.0243141 6.26173 -90.0019 14.3502 0.047284 -0.0104988 2.67927 0.0467721 -0.0125771 -19.8559 0.0482496 0.0041954 0.156758 0.0482456 0.00420934 96.3334 -12.7329 -98.593 42.6531 -37.2055 28.5197 17.6613 -3.25697 -147.226 87.3052 13.9954 9.44451 -85.5814 -32.6494 82.3869 0.0387909 17.2048 13.1924 75.8544 -32.4776 -105.419 -80.363 26.2494 -36.5978 31.7977 -1.55137 -2.51015 -0.428936 -0.394607 1.53836 
36.1999 8.25835 40.3025 3.94864 -10.2327 -1.05665 -174.945 -9.43733 92.1088 -19.7527 37.0675 3.70397 91.6285 22.1091 1.15791 31.878 -9.27769 25.5174 173.354 -16.0412 90.2226 -10.3339 -21.0717 -2.79177 84.9631 -21.6535 -8.60085 64.3566 -12.7528 22.0846 0.0295151 6.24687 -89.9988 14.3802 0.059052 -0.00592808 2.70922 0.0587366 -0.00852996 -19.8259 0.058101 0.0120973 0.186698 0.0580997 0.0120964 96.6934 -11.809 -97.9168 44.1508 -38.016 28.5474 17.4126 -2.50385 -147.335 87.3293 13.8585 9.29638 -85.4657 -32.5211 82.5771 -0.19702 17.6382 13.1257 76.0556 -32.581 -105.207 -80.4153 26.3076 -36.6382 31.5054 -1.59015 -2.37509 -0.0136398 -0.492608 1.39863 
36.1884 8.26512 40.3109 4.00628 -10.1063 -0.996766 -174.979 -9.18352 92.1758 -19.9337 36.756 3.75999 92.0343 21.9863 0.341534 34.2009 -8.88845 28.4024 173.526 -16.2916 90.4661 -9.70812 -20.8713 -2.85489 84.3139 -21.5695 -9.26523 67.0031 -13.0616 24.0264 0.0195163 6.2345 -89.9959 14.4045 0.0407498 0.00324139 2.73359 0.0408541 0.00144235 -19.8015 0.0378883 0.0153296 0.211079 0.0378916 0.015342 96.3099 -12.4084 -98.8504 43.1106 -37.0992 28.6486 17.5555 -3.0767 -147.282 87.2638 13.9948 9.45399 -85.6187 -32.4733 82.2779 -0.205474 17.3824 13.3615 76.2515 -32.5397 -105.36 -80.5131 26.956 -37.3634 31.1295 -1.74285 -2.91601 0.322673 -0.398858 1.7606 
36.2145 8.2518 40.302 3.92326 -10.1866 -1.04062 -174.949 -9.37313 92.0889 -19.8105 36.9601 3.71658 91.612 22.1011 1.17198 36.3918 -7.80245 29.7057 173.523 -16.5971 90.4947 -9.384 -21.2318 -2.93953 83.6686 -21.5797 -10.3115 69.4828 -13.3101 25.5926 0.163261 6.53568 -90.1527 13.8028 0.249336 -0.339209 2.13183 0.234167 -0.349855 -20.4033 0.339753 -0.248575 -0.390636 0.339753 -0.248584 99.273 -5.97693 -91.8809 47.1925 -41.4399 24.5512 16.1515 -0.84021 -147.949 87.671 13.2268 8.56163 -83.892 -30.2616 85.1414 -3.29486 16.499 8.90795 76.6638 -32.3276 -105.26 -80.5816 26.2456 -36.4745 38.0926 -1.0857 0.758007 -3.9296 -1.37856 -0.181721 
